<svg width="89" height="40" viewBox="0 0 89 40" fill="none" xmlns="http://www.w3.org/2000/svg">
<rect width="89" height="40" fill="#F5F5F5"/>
<g id="Mobile version" clip-path="url(#clip0_0_1)">
<rect width="375" height="6826" transform="translate(-20 -18)" fill="white"/>
<g id="Group 45">
<circle id="Ellipse 3" cx="75.5461" cy="13.3635" r="13.3635" fill="#A4E7ED"/>
<circle id="Ellipse 4" cx="17.1809" cy="13.3635" r="13.3635" fill="#73C3F4"/>
<circle id="Ellipse 6" cx="14.0914" cy="31.3637" r="8.63628" fill="#DD71C6"/>
<circle id="Ellipse 5" cx="5.36358" cy="24.8176" r="5.36358" fill="#FFD900"/>
<g id="Layer 1">
<path id="Vector" d="M15.3477 24.8598C15.4146 24.6676 15.4602 24.4686 15.4838 24.2665C15.4838 24.2665 16.1472 24.9089 16.4734 26.1316C16.7996 27.3544 17.1739 27.7777 17.7452 28.314C18.3166 28.8503 20.0467 29.957 21.8338 31.9703C23.5839 33.9455 25.8713 36.6302 25.9544 36.7273C25.8983 36.6122 24.0672 32.8869 23.0626 31.543C22.0429 30.1782 21.3105 29.0304 20.3358 28.5712C19.3612 28.1119 18.6288 26.9641 18.6348 25.16C18.6408 23.3559 17.6872 22.5964 17.1058 22.2582C16.5245 21.92 14.7183 20.309 15.6689 17.8554C16.6195 15.4019 21.4375 13.7008 22.6653 13.3736C23.8931 13.0464 26.6458 12.1119 26.6458 12.1119C26.6458 12.1119 23.831 12.2419 22.0909 12.8423C20.3789 13.4297 18.4767 13.907 18.4176 13.922C18.4477 13.89 19.009 13.2536 18.8569 12.6212C18.7969 12.3293 18.6306 12.0701 18.3902 11.8941C18.1498 11.718 17.8525 11.6376 17.5561 11.6686C17.0978 11.7326 16.9677 11.8147 16.9477 11.8297C17.0048 11.7676 17.9484 10.812 18.5337 10.4288C19.1191 10.0456 19.7935 9.39115 20.0176 9.00391C20.0176 9.00391 17.7362 10.2687 16.8006 10.813C15.865 11.3574 14.8124 12.1969 13.7227 13.6348C12.633 15.0727 12.4419 16.5636 12.659 17.9805C12.8762 19.3974 13.5186 20.338 13.7877 20.8563C14.0569 21.3747 14.3021 22.2902 13.9729 22.7715C13.6437 23.2528 12.4449 24.7848 12.3669 26.0826C12.2888 27.3804 12.8322 28.317 13.4836 29.1575C14.135 29.998 15.4848 32.4876 16.4404 34.9511C17.396 37.4147 17.9684 37.853 17.9684 37.853C17.9684 37.853 17.1789 32.6917 16.5675 31.2488C15.9561 29.8059 15.1506 28.1549 14.9665 27.9468C14.7824 27.7386 14.216 27.0992 14.5572 26.4178C14.8984 25.7364 15.2236 25.2501 15.3477 24.8598ZM14.9365 15.1117C14.9365 15.1117 14.9024 14.011 15.5368 13.4437C15.5368 13.4437 15.6819 14.3543 16.5745 14.5094C16.5765 14.5094 15.5418 15.0437 14.9365 15.1117Z" fill="#4D85B0"/>
<path id="Vector_2" d="M25.3264 21.4899C25.1993 20.3431 25.0662 19.2274 24.9261 18.1748C24.786 17.1221 24.6199 16.1245 24.4258 15.2289L24.3998 15.1099H23.149L23.104 15.1739C22.7938 15.6152 22.4786 16.0745 22.1674 16.5418C21.8562 17.0091 21.542 17.5004 21.2258 18.0107C20.9096 18.521 20.5824 19.0623 20.2492 19.6257C19.916 20.189 19.5638 20.7944 19.1975 21.4268L19.0645 21.654H20.6344L20.6765 21.5739C20.8155 21.3137 20.9536 21.0596 21.0887 20.8174L21.4459 20.176H23.7674C23.7864 20.3672 23.8054 20.5623 23.8234 20.7634C23.8464 21.0116 23.8655 21.2637 23.8795 21.5119L23.8875 21.654H25.3414L25.3264 21.4899ZM22.1144 18.9763C22.3775 18.522 22.6307 18.1017 22.8698 17.7255C23.0626 17.42 23.2441 17.1351 23.4142 16.871C23.4582 17.1972 23.4992 17.5184 23.5353 17.8316C23.5813 18.2178 23.6193 18.602 23.6493 18.9763H22.1144Z" fill="#FFD900"/>
<path id="Vector_3" d="M33.3198 17.5868C33.508 17.2943 33.6084 16.9539 33.609 16.6061C33.6206 16.3212 33.5391 16.0402 33.3768 15.8056C33.2274 15.6028 33.0315 15.4387 32.8055 15.3273C32.568 15.2113 32.3131 15.1349 32.051 15.1012C31.7878 15.0638 31.5223 15.0451 31.2565 15.0452C30.9503 15.0452 30.6411 15.0572 30.3379 15.0812C30.0432 15.1044 29.7503 15.1476 29.4614 15.2103L29.3703 15.2313L27.8594 21.5172L28.0075 21.5502C28.313 21.6176 28.623 21.6624 28.935 21.6843C29.2773 21.7123 29.6075 21.7263 29.9157 21.7263C30.9803 21.7263 31.8098 21.5262 32.3822 21.126C32.9726 20.7137 33.2718 20.1253 33.2718 19.3719C33.2768 19.0861 33.1917 18.8061 33.0286 18.5714C32.921 18.4211 32.785 18.2932 32.6284 18.1951C32.9077 18.0557 33.1459 17.846 33.3198 17.5868ZM31.4086 17.6118C31.241 17.6462 31.0703 17.6633 30.8993 17.6628H30.2219L30.5521 16.3C30.6161 16.2939 30.6901 16.2869 30.7742 16.2819C30.9083 16.2729 31.0464 16.2709 31.1795 16.2689C31.4421 16.257 31.704 16.3042 31.9459 16.407C32.046 16.455 32.1731 16.5521 32.1731 16.8403C32.1779 16.9666 32.1455 17.0915 32.08 17.1995C32.0114 17.3035 31.9209 17.3912 31.8149 17.4567C31.6898 17.5322 31.5522 17.5847 31.4086 17.6118ZM31.6708 19.9853C31.5706 20.1196 31.4395 20.2277 31.2885 20.3005C31.117 20.3808 30.934 20.4342 30.7462 20.4586C30.5472 20.4862 30.3467 20.5006 30.1458 20.5016C29.9817 20.5016 29.8296 20.5016 29.6955 20.4886L29.5384 20.4766L29.9387 18.8375H30.8472C31.2105 18.8375 31.4686 18.8996 31.6147 19.0227C31.6813 19.0767 31.7346 19.1453 31.7706 19.2232C31.8065 19.3011 31.824 19.3862 31.8219 19.4719C31.829 19.655 31.7759 19.8353 31.6708 19.9853Z" fill="#FFD900"/>
<path id="Vector_4" d="M37.8486 16.9209C37.5694 16.6607 37.1771 16.5286 36.6838 16.5286C36.261 16.5228 35.8429 16.6178 35.4641 16.8058C35.1086 16.9856 34.7933 17.2359 34.5375 17.5413C34.2801 17.8519 34.0817 18.2069 33.9521 18.5889C33.8188 18.9807 33.7512 19.3918 33.752 19.8057C33.7503 20.0614 33.7895 20.3158 33.8681 20.5592C33.945 20.8028 34.0763 21.0259 34.2521 21.2113C34.4279 21.3968 34.6435 21.5399 34.8827 21.6298C35.177 21.7393 35.4894 21.792 35.8033 21.7849C36.1181 21.7898 36.4323 21.7562 36.7389 21.6849C36.9579 21.6354 37.1719 21.5661 37.3783 21.4777L37.4783 21.4327L37.3573 20.243L37.1711 20.319C36.8015 20.4752 36.4047 20.5572 36.0034 20.5602C35.2259 20.5602 35.1209 20.1939 35.1169 19.9087C35.4591 19.8937 35.8013 19.8657 36.1355 19.8227C36.4976 19.7802 36.8515 19.6851 37.1862 19.5405C37.4894 19.4083 37.7559 19.2043 37.9626 18.9461C38.1797 18.6537 38.2893 18.2953 38.2728 17.9315C38.2785 17.7425 38.2436 17.5545 38.1704 17.3801C38.0972 17.2058 37.9875 17.0492 37.8486 16.9209ZM36.5207 17.7214C36.6898 17.7214 36.8079 17.7544 36.865 17.8154C36.9227 17.8758 36.9553 17.956 36.956 18.0396C36.956 18.2817 36.8279 18.4528 36.5558 18.5789C36.2836 18.705 35.8373 18.786 35.2419 18.8181C35.2777 18.7059 35.3239 18.5973 35.38 18.4939C35.4602 18.3433 35.5613 18.2049 35.6802 18.0826C35.792 17.9705 35.9236 17.8803 36.0685 17.8164C36.2109 17.7533 36.365 17.7209 36.5207 17.7214Z" fill="#FFD900"/>
<path id="Vector_5" d="M39.9167 19.9132C39.9064 19.9855 39.9011 20.0583 39.9007 20.1313C39.9004 20.1919 39.9068 20.2523 39.9197 20.3115C39.9278 20.3535 39.9472 20.3926 39.9758 20.4245C40.0142 20.4637 40.0616 20.4929 40.1138 20.5096C40.2109 20.5401 40.3124 20.5536 40.414 20.5496C40.5584 20.5501 40.7021 20.5309 40.8413 20.4926C40.9702 20.4573 41.0969 20.4142 41.2205 20.3635L41.4087 20.2844L41.5187 21.4702L41.4187 21.5132C41.2421 21.5869 41.0601 21.6468 40.8743 21.6923C40.6201 21.7531 40.3592 21.782 40.0978 21.7784C39.5425 21.7784 39.1332 21.6493 38.8831 21.3951C38.6329 21.141 38.5068 20.7948 38.5068 20.3655C38.5071 20.2095 38.5182 20.0537 38.5399 19.8992C38.5645 19.7291 38.5979 19.5605 38.6399 19.3939L39.5835 15.4214L41.0414 15.1902L40.6882 16.6452H42.2312L41.942 17.8459H40.398L39.9778 19.599C39.9467 19.7231 39.9277 19.8292 39.9167 19.9132Z" fill="#FFD900"/>
<path id="Vector_6" d="M43.53 19.9132C43.5201 19.9858 43.5148 20.059 43.5139 20.1323C43.5142 20.1925 43.5205 20.2526 43.533 20.3115C43.5415 20.3534 43.5608 20.3923 43.589 20.4245C43.628 20.4635 43.6757 20.4926 43.7281 20.5096C43.8251 20.5401 43.9267 20.5536 44.0283 20.5496C44.173 20.5502 44.317 20.531 44.4565 20.4926C44.5852 20.4574 44.7115 20.4142 44.8348 20.3635L45.0239 20.2844L45.134 21.4702L45.0339 21.5142C44.8568 21.5871 44.6745 21.6466 44.4886 21.6923C44.2346 21.7531 43.9741 21.782 43.7131 21.7784C43.1567 21.7784 42.7485 21.6493 42.4983 21.3951C42.2482 21.141 42.1211 20.7948 42.1221 20.3655C42.1224 20.2095 42.1334 20.0537 42.1551 19.8992C42.1797 19.7291 42.2131 19.5605 42.2552 19.3939L43.1988 15.4214L44.6557 15.1902L44.3024 16.6442H45.8444L45.5562 17.8449H44.0113L43.588 19.595C43.561 19.7231 43.541 19.8292 43.53 19.9132Z" fill="#FFD900"/>
<path id="Vector_7" d="M49.793 16.9241C49.6494 16.7913 49.4787 16.6913 49.2926 16.631C49.0783 16.5621 48.8543 16.5283 48.6292 16.5309C48.2058 16.5251 47.787 16.6201 47.4075 16.8081C47.0517 16.9883 46.7364 17.2393 46.4809 17.5455C46.2232 17.8561 46.0244 18.2111 45.8945 18.5932C45.7608 18.9845 45.6932 19.3954 45.6944 19.8089C45.6926 20.065 45.7318 20.3197 45.8105 20.5634C45.8878 20.8069 46.0192 21.0297 46.195 21.2151C46.3707 21.4006 46.5861 21.5438 46.8251 21.6341C47.1194 21.7436 47.4318 21.7962 47.7457 21.7892C48.0604 21.7936 48.3746 21.76 48.6813 21.6891C48.9 21.6389 49.114 21.5696 49.3207 21.482L49.4207 21.437L49.2956 20.2472L49.1095 20.3243C48.74 20.4797 48.3437 20.5613 47.9428 20.5644C47.1653 20.5644 47.0602 20.1982 47.0562 19.913C47.3995 19.899 47.7407 19.87 48.0739 19.827C48.4359 19.7851 48.7898 19.6907 49.1245 19.5468C49.4296 19.4154 49.6982 19.2117 49.907 18.9534C50.1243 18.6617 50.2345 18.3042 50.2192 17.9408C50.2253 17.7506 50.1904 17.5614 50.1169 17.386C50.0433 17.2106 49.9328 17.0531 49.793 16.9241ZM48.4651 17.7246C48.6332 17.7246 48.7523 17.7577 48.8083 17.8247C48.867 17.8846 48.9 17.965 48.9004 18.0488C48.9004 18.29 48.7723 18.4621 48.5001 18.5882C48.228 18.7143 47.7817 18.7903 47.1813 18.8213C47.2168 18.7094 47.263 18.6011 47.3194 18.4981C47.3993 18.3471 47.5003 18.2082 47.6196 18.0859C47.7312 17.9741 47.8625 17.8839 48.0068 17.8197C48.1511 17.7558 48.3073 17.7234 48.4651 17.7246Z" fill="#FFD900"/>
<path id="Vector_8" d="M54.3271 16.7738L53.9169 17.9565L53.7758 17.9075C53.6569 17.8662 53.5347 17.8347 53.4106 17.8135C53.2573 17.7898 53.1024 17.7787 52.9473 17.7804C52.8452 17.781 52.7433 17.788 52.6421 17.8014C52.5805 17.809 52.5194 17.8197 52.459 17.8335L51.5454 21.6639H50.1445L51.2912 16.9009L51.3703 16.8739C51.6448 16.7837 51.924 16.7088 52.2068 16.6497C52.5306 16.5818 52.8606 16.5483 53.1914 16.5497C53.2705 16.5497 53.3565 16.5547 53.4516 16.5637C53.5467 16.5727 53.6337 16.5837 53.7228 16.5957C53.8118 16.6077 53.9029 16.6257 53.9809 16.6437C54.056 16.6609 54.1294 16.6851 54.2001 16.7158L54.3271 16.7738Z" fill="#FFD900"/>
<path id="Vector_9" d="M32.6716 23.4345L32.5865 23.6416C32.1132 24.7983 31.6279 25.907 31.1436 26.9437C30.6593 27.9803 30.143 28.9739 29.5986 29.9105L29.5556 29.9856H28.2358L28.2168 29.8575C28.1687 29.5333 28.1227 29.2141 28.0777 28.9019C28.0327 28.5897 27.9906 28.2665 27.9526 27.9473C27.9146 27.6281 27.8776 27.2959 27.8445 26.9617C27.8275 26.7866 27.8095 26.6035 27.7935 26.4153C27.4983 26.9547 27.2051 27.481 26.919 27.9853C26.5527 28.6317 26.1585 29.2861 25.7482 29.9175L25.7042 29.9856H24.3804L24.3684 29.8495C24.3213 29.3282 24.2873 28.8008 24.2683 28.2825C24.2493 27.7642 24.2383 27.2308 24.2383 26.6905C24.2383 25.7059 24.2723 24.6602 24.3383 23.5806L24.3473 23.4395H25.7842L25.7742 23.5996C25.7382 24.1769 25.7072 24.7543 25.6842 25.3136C25.6612 25.873 25.6482 26.4544 25.6482 27.0327V27.6861C25.6482 27.7362 25.6482 27.7862 25.6482 27.8372C25.7482 27.6631 25.8583 27.485 25.9634 27.3039C26.1635 26.9667 26.3576 26.6215 26.5497 26.2753C26.7418 25.929 26.93 25.5748 27.1131 25.2326C27.2962 24.8904 27.4693 24.5512 27.6314 24.232L27.6734 24.1499H28.8992L28.9062 24.292C28.9242 24.6162 28.9472 24.9584 28.9732 25.3066C28.9993 25.6549 29.0323 26.0131 29.0673 26.3623C29.1023 26.7115 29.1393 27.0567 29.1754 27.393C29.1914 27.547 29.2084 27.6931 29.2244 27.8422C29.3245 27.6481 29.4245 27.442 29.5246 27.2329C29.7047 26.8516 29.8868 26.4544 30.0649 26.0511C30.243 25.6479 30.4242 25.2206 30.5963 24.7973C30.7684 24.3741 30.9375 23.9498 31.0966 23.5335L31.1336 23.4335L32.6716 23.4345Z" fill="#FFD900"/>
<path id="Vector_10" d="M35.9932 25.2411C35.713 24.9809 35.3207 24.8489 34.8274 24.8489C34.4039 24.8434 33.9851 24.9387 33.6057 25.127C33.2502 25.3069 32.9352 25.5575 32.6801 25.8635C32.4223 26.1738 32.2239 26.529 32.0947 26.9111C31.961 27.3025 31.8934 27.7134 31.8946 28.1269C31.8928 28.383 31.932 28.6377 32.0107 28.8814C32.0877 29.1248 32.2187 29.3477 32.3941 29.5333C32.5695 29.7189 32.7846 29.8624 33.0233 29.9531C33.3178 30.0617 33.6301 30.114 33.9439 30.1071C34.2593 30.1115 34.5741 30.0779 34.8815 30.0071C35.1004 29.957 35.3144 29.8874 35.5209 29.799L35.6209 29.7549L35.4988 28.5642L35.3127 28.6412C34.9431 28.7975 34.5463 28.8794 34.145 28.8824C33.3675 28.8824 33.2624 28.5162 33.2584 28.231C33.6007 28.216 33.9429 28.1869 34.2761 28.1449C34.6384 28.1018 34.9925 28.0068 35.3277 27.8627C35.6328 27.7312 35.901 27.5272 36.1092 27.2684C36.327 26.9751 36.4366 26.6156 36.4194 26.2507C36.4246 26.0618 36.3893 25.8739 36.3158 25.6997C36.2422 25.5255 36.1322 25.3692 35.9932 25.2411ZM34.6653 26.0416C34.8334 26.0416 34.9525 26.0746 35.0095 26.1417C35.0676 26.2019 35.1002 26.2822 35.1006 26.3658C35.1006 26.607 34.9725 26.7791 34.7003 26.9051C34.4282 27.0312 33.9819 27.1123 33.3875 27.1443C33.4229 27.0321 33.4688 26.9236 33.5246 26.8201C33.6045 26.6694 33.7056 26.5309 33.8248 26.4088C33.9368 26.2968 34.0684 26.2062 34.213 26.1417C34.3551 26.0768 34.5092 26.0427 34.6653 26.0416Z" fill="#FFD900"/>
<path id="Vector_11" d="M39.347 23.6499C39.3504 23.7733 39.3268 23.896 39.2779 24.0094C39.2289 24.1227 39.1559 24.2241 39.0639 24.3063C38.8926 24.4672 38.6664 24.5567 38.4315 24.5565C38.2436 24.56 38.0604 24.4973 37.9141 24.3794C37.8343 24.3128 37.7713 24.2284 37.7301 24.133C37.6889 24.0375 37.6707 23.9338 37.677 23.83C37.6737 23.7067 37.6967 23.5842 37.7445 23.4705C37.7923 23.3568 37.8638 23.2545 37.9542 23.1706C38.1221 23.0051 38.3487 22.9126 38.5846 22.9135C38.7746 22.9111 38.9595 22.9756 39.1069 23.0956C39.1873 23.1629 39.2508 23.2481 39.2925 23.3443C39.3342 23.4406 39.3529 23.5452 39.347 23.6499Z" fill="#FFD900"/>
<path id="Vector_12" d="M38.9435 24.9669L37.7358 29.9801H36.3369L37.5447 24.9669H38.9435Z" fill="#FFD900"/>
<path id="Vector_13" d="M43.9091 25.2011C43.674 25.076 43.4213 24.9873 43.1596 24.9379C42.9083 24.8871 42.6526 24.8607 42.3961 24.8589C41.9404 24.8535 41.4878 24.9333 41.0613 25.094C40.6751 25.2408 40.3225 25.464 40.0247 25.7505C39.7352 26.0345 39.5074 26.3751 39.3552 26.7511C39.1949 27.1502 39.1144 27.5768 39.1181 28.0069C39.1181 28.5172 39.2602 28.9344 39.5394 29.2466C39.8185 29.5588 40.2568 29.7249 40.8282 29.7249C41.023 29.7256 41.2169 29.6977 41.4035 29.6419C41.4636 29.6239 41.5216 29.6049 41.5766 29.5849C41.5105 29.8144 41.3837 30.0218 41.2094 30.1852C41.0093 30.3633 40.7091 30.4534 40.3088 30.4534C40.0749 30.4566 39.8416 30.428 39.6154 30.3683C39.4309 30.3189 39.2536 30.2456 39.0881 30.1502L38.942 30.0632L38.4307 31.2289L38.5537 31.2949C38.7767 31.41 39.0116 31.5003 39.2542 31.5641C39.5483 31.6394 39.8511 31.6757 40.1547 31.6722C40.5489 31.68 40.9421 31.6294 41.3215 31.5221C41.6276 31.432 41.9115 31.2789 42.155 31.0728C42.3863 30.8687 42.5723 30.6185 42.7013 30.3383C42.8446 30.0271 42.9553 29.7018 43.0315 29.3677L44.0132 25.2541L43.9091 25.2011ZM41.0963 28.5442C40.8742 28.5442 40.7251 28.4902 40.64 28.3781C40.5372 28.2211 40.4881 28.035 40.5 27.8478C40.4982 27.6122 40.5407 27.3783 40.625 27.1583C40.7049 26.9511 40.8234 26.761 40.9743 26.598C41.1304 26.4303 41.32 26.2973 41.5308 26.2077C41.7416 26.1181 41.969 26.0738 42.198 26.0777C42.2723 26.0777 42.3465 26.0828 42.4202 26.0927L41.8898 28.294C41.7837 28.3672 41.6678 28.4251 41.5456 28.4662C41.4013 28.5173 41.2494 28.5437 41.0963 28.5442Z" fill="#FFD900"/>
<path id="Vector_14" d="M48.78 26.5317C48.7778 26.8208 48.7402 27.1084 48.668 27.3883L48.0456 29.9799H46.6447L47.2561 27.4333C47.2851 27.2992 47.3151 27.1581 47.3451 27.0141C47.3719 26.8911 47.386 26.7657 47.3872 26.6398C47.3931 26.4932 47.3482 26.349 47.2601 26.2316C47.167 26.1115 46.9469 26.0865 46.7788 26.0865C46.6664 26.0867 46.5543 26.0964 46.4436 26.1155C46.3625 26.1305 46.2875 26.1465 46.2184 26.1645L45.3179 29.9799H43.917L45.6181 22.8845L47.074 22.6533L46.5236 24.9548L46.6847 24.9227C46.8318 24.8941 46.9812 24.8797 47.131 24.8797C47.3814 24.8742 47.6306 24.9159 47.8655 25.0028C48.0635 25.0782 48.242 25.1972 48.3878 25.351C48.5275 25.5041 48.6302 25.6873 48.688 25.8863C48.7507 26.0957 48.7817 26.3132 48.78 26.5317Z" fill="#FFD900"/>
<path id="Vector_15" d="M50.6965 28.4814L50.6835 28.6425C50.6432 29.1526 50.4999 29.6492 50.2622 30.1024C50.028 30.5578 49.7437 30.9857 49.4147 31.3782L49.3497 31.4542L48.292 31.123L48.3981 30.9569C48.6288 30.5944 48.8204 30.2083 48.9694 29.8052C49.1145 29.4249 49.2054 29.0261 49.2396 28.6205L49.2506 28.4814H50.6965Z" fill="#FFD900"/>
<path id="Vector_16" d="M55.5988 23.4335L54.0308 29.9796H52.5869L54.1549 23.4335H55.5988Z" fill="#FFD900"/>
<path id="Vector_17" d="M59.9881 26.5141C59.9875 26.6554 59.9764 26.7966 59.9551 26.9363C59.9341 27.0804 59.9081 27.2295 59.877 27.3816L59.2537 29.9832H57.8528L58.4532 27.4376C58.4822 27.3076 58.5122 27.1725 58.5422 27.0374C58.5692 26.9152 58.5863 26.7911 58.5932 26.6661C58.6047 26.515 58.563 26.3645 58.4752 26.2409C58.4011 26.1408 58.229 26.0928 57.9749 26.0928C57.7929 26.0903 57.6113 26.1084 57.4335 26.1468L56.5229 29.9862H55.1221L56.2678 25.2022L56.3508 25.1772C56.594 25.1042 56.8762 25.0351 57.1884 24.9711C57.532 24.9029 57.8817 24.8694 58.232 24.871C58.8254 24.871 59.2707 25.0221 59.5578 25.3223C59.845 25.6225 59.9881 26.0197 59.9881 26.5141Z" fill="#FFD900"/>
<path id="Vector_18" d="M64.818 25.1583L64.3087 26.3061L64.1716 26.245C64.0614 26.1977 63.9481 26.1582 63.8324 26.1269C63.686 26.0915 63.5357 26.075 63.3851 26.0779C63.1667 26.0747 62.9506 26.1234 62.7547 26.22C62.5692 26.3131 62.406 26.4452 62.2764 26.6072C62.1387 26.7839 62.0346 26.9844 61.9692 27.1986C61.8949 27.438 61.8577 27.6874 61.8591 27.9381C61.8577 28.0695 61.8728 28.2006 61.9041 28.3283C61.9291 28.4331 61.9754 28.5315 62.0402 28.6175C62.1047 28.6998 62.1905 28.7629 62.2884 28.7996C62.4291 28.8505 62.5781 28.8743 62.7277 28.8697C62.9131 28.87 63.0977 28.8444 63.276 28.7936C63.4166 28.7569 63.5533 28.7066 63.6843 28.6435L63.8844 28.5435L64.0075 29.7622L63.9124 29.8073C63.7272 29.8907 63.535 29.9576 63.338 30.0074C63.072 30.0774 62.7976 30.111 62.5225 30.1074C62.2108 30.114 61.9008 30.0596 61.61 29.9473C61.363 29.8493 61.1404 29.6988 60.9576 29.5061C60.7827 29.3167 60.6516 29.0912 60.5733 28.8456C60.4912 28.5868 60.4507 28.3167 60.4532 28.0451C60.4509 27.6312 60.5186 27.2198 60.6534 26.8284C60.7815 26.4543 60.9791 26.1077 61.2357 25.8067C61.4932 25.5091 61.8116 25.2703 62.1693 25.1063C62.5628 24.9303 62.9901 24.8429 63.4211 24.8501C63.6471 24.8487 63.8726 24.8694 64.0945 24.9122C64.2963 24.9521 64.493 25.0145 64.6809 25.0983L64.818 25.1583Z" fill="#FFD900"/>
<g id="Group 7">
<path id="Vector_19" d="M28.4689 33.3325C28.5029 33.3945 28.542 33.4705 28.586 33.5606C28.63 33.6517 28.676 33.7497 28.7241 33.8558C28.7721 33.9619 28.8191 34.0689 28.8662 34.18C28.9132 34.2911 28.9562 34.3941 28.9982 34.4912L29.1303 34.18C29.1774 34.0689 29.2244 33.9609 29.2724 33.8558C29.3204 33.7507 29.3655 33.6557 29.4105 33.5606C29.4555 33.4655 29.4926 33.3945 29.5266 33.3325H29.9268C29.9458 33.4615 29.9628 33.6056 29.9789 33.7657C29.9949 33.9258 30.0089 34.0919 30.0209 34.266C30.0329 34.4402 30.0449 34.6123 30.0549 34.7864C30.0649 34.9605 30.0739 35.1236 30.0809 35.2777H29.6547C29.6497 35.0886 29.6416 34.8824 29.6326 34.6603C29.6236 34.4382 29.6096 34.213 29.5906 33.9869C29.5566 34.0659 29.5196 34.152 29.4775 34.248C29.4355 34.3441 29.3955 34.4382 29.3555 34.5342C29.3154 34.6303 29.2764 34.7203 29.2384 34.8074L29.1383 35.0305H28.8321L28.7371 34.8074C28.6991 34.72 28.66 34.6289 28.62 34.5342C28.579 34.4341 28.539 34.3431 28.4969 34.248L28.3849 33.9869C28.3662 34.213 28.3522 34.4375 28.3428 34.6603C28.3338 34.8824 28.3258 35.0886 28.3208 35.2777H27.8936C27.9016 35.1236 27.9106 34.9605 27.9206 34.7864C27.9306 34.6123 27.9426 34.4392 27.9546 34.266C27.9666 34.0929 27.9806 33.9268 27.9966 33.7657C28.0126 33.6046 28.0296 33.4655 28.0487 33.3325H28.4689Z" fill="#55A301"/>
<path id="Vector_20" d="M30.3713 34.5494C30.3688 34.4319 30.3892 34.315 30.4313 34.2052C30.4671 34.1135 30.5213 34.0301 30.5904 33.96C30.6542 33.8952 30.7309 33.8444 30.8156 33.8109C30.8991 33.7781 30.988 33.7611 31.0777 33.7609C31.17 33.7557 31.2623 33.7702 31.3485 33.8033C31.4347 33.8364 31.513 33.8875 31.578 33.953C31.7097 34.1108 31.7749 34.3135 31.7602 34.5184C31.7602 34.5424 31.7602 34.5694 31.7602 34.5984C31.7602 34.6275 31.7602 34.6525 31.7542 34.6755H30.8066C30.8106 34.7156 30.8235 34.7544 30.8442 34.789C30.865 34.8236 30.8931 34.8531 30.9266 34.8756C31.0117 34.9303 31.1118 34.9569 31.2128 34.9517C31.2887 34.9518 31.3644 34.9447 31.439 34.9306C31.5011 34.9202 31.5619 34.9028 31.6201 34.8786L31.6761 35.2178C31.6474 35.2323 31.6172 35.2437 31.5861 35.2518C31.545 35.2639 31.5032 35.2736 31.461 35.2809C31.4123 35.2904 31.3632 35.2974 31.3139 35.3019C31.2617 35.3079 31.2093 35.3109 31.1568 35.3109C31.0387 35.3132 30.9212 35.2932 30.8106 35.2518C30.7185 35.2165 30.6352 35.1615 30.5664 35.0907C30.5013 35.0213 30.4525 34.9382 30.4233 34.8476C30.3902 34.7516 30.3726 34.6509 30.3713 34.5494ZM31.3529 34.3893C31.3507 34.3554 31.3446 34.3218 31.3349 34.2892C31.3252 34.2563 31.3088 34.2256 31.2869 34.1992C31.2646 34.1724 31.237 34.1506 31.2058 34.1351C31.1677 34.1172 31.1258 34.1086 31.0837 34.1101C31.0422 34.1093 31.001 34.1172 30.9627 34.1331C30.9305 34.1484 30.9018 34.1702 30.8786 34.1972C30.856 34.2241 30.8387 34.2549 30.8276 34.2882C30.8154 34.3207 30.8063 34.3542 30.8006 34.3883L31.3529 34.3893Z" fill="#55A301"/>
<path id="Vector_21" d="M33.3817 35.2285C33.3447 35.2395 33.3017 35.2505 33.2527 35.2605C33.2036 35.2705 33.1526 35.2795 33.0996 35.2876C33.0465 35.2956 32.9925 35.3006 32.9375 35.3056C32.8824 35.3106 32.8294 35.3126 32.7784 35.3126C32.6677 35.3142 32.5576 35.2962 32.4532 35.2595C32.3626 35.2266 32.2803 35.1744 32.212 35.1064C32.1454 35.0376 32.0943 34.9554 32.0619 34.8653C32.0257 34.7632 32.0081 34.6554 32.0099 34.5471C32.0084 34.4374 32.0236 34.3281 32.0549 34.2229C32.0813 34.1334 32.1252 34.0501 32.184 33.9777C32.2395 33.9105 32.3102 33.8574 32.3901 33.8226C32.4786 33.7861 32.5736 33.768 32.6693 33.7696C32.7218 33.7691 32.7742 33.7749 32.8254 33.7866C32.8728 33.7983 32.9191 33.8144 32.9635 33.8346V33.1672L33.3817 33.0992V35.2285ZM32.4362 34.5281C32.4307 34.6385 32.4612 34.7477 32.5232 34.8393C32.5533 34.8785 32.5926 34.9098 32.6376 34.9302C32.6826 34.9506 32.732 34.9596 32.7814 34.9563C32.8184 34.9563 32.8534 34.9563 32.8814 34.9563C32.9095 34.9563 32.9395 34.9503 32.9595 34.9463V34.1859C32.9283 34.1671 32.8946 34.153 32.8594 34.1438C32.8176 34.1327 32.7746 34.127 32.7313 34.1268C32.5346 34.1242 32.4362 34.2576 32.4362 34.5271V34.5281Z" fill="#55A301"/>
<path id="Vector_22" d="M34.2317 33.3742C34.2336 33.408 34.2279 33.4418 34.2151 33.4731C34.2023 33.5045 34.1827 33.5325 34.1576 33.5553C34.1092 33.5979 34.047 33.6214 33.9825 33.6214C33.9181 33.6214 33.8558 33.5979 33.8074 33.5553C33.7594 33.5073 33.7324 33.4422 33.7324 33.3742C33.7324 33.3063 33.7594 33.2412 33.8074 33.1931C33.8558 33.1506 33.9181 33.1271 33.9825 33.1271C34.047 33.1271 34.1092 33.1506 34.1576 33.1931C34.1827 33.2159 34.2023 33.244 34.2151 33.2753C34.2279 33.3067 34.2336 33.3404 34.2317 33.3742ZM34.1927 35.2754H33.7724V33.8005H34.1907L34.1927 35.2754Z" fill="#55A301"/>
<path id="Vector_23" d="M34.5137 34.5378C34.5132 34.4355 34.5304 34.3339 34.5647 34.2376C34.5971 34.1452 34.6484 34.0605 34.7154 33.9892C34.7825 33.9178 34.8637 33.8613 34.954 33.8233C35.055 33.781 35.1637 33.7602 35.2732 33.7623C35.3458 33.7616 35.4182 33.7687 35.4893 33.7833C35.5548 33.7972 35.6188 33.8173 35.6804 33.8433L35.5934 34.1775C35.5512 34.1617 35.5081 34.1484 35.4643 34.1375C35.4127 34.1262 35.36 34.1208 35.3072 34.1215C35.2553 34.1175 35.2033 34.1259 35.1553 34.1459C35.1073 34.1659 35.0647 34.197 35.031 34.2366C34.9671 34.3232 34.935 34.4292 34.94 34.5368C34.933 34.6464 34.963 34.7553 35.025 34.846C35.0633 34.8861 35.1102 34.9168 35.1623 34.9357C35.2144 34.9546 35.2701 34.9612 35.3252 34.955C35.3795 34.9545 35.4337 34.9498 35.4873 34.941C35.5424 34.933 35.5962 34.9178 35.6474 34.896L35.7064 35.2382C35.6478 35.2623 35.5868 35.2801 35.5243 35.2912C35.4449 35.307 35.3641 35.3147 35.2832 35.3143C35.1643 35.3172 35.046 35.2968 34.935 35.2542C34.8439 35.2177 34.762 35.1617 34.6948 35.0901C34.6315 35.0192 34.5847 34.9351 34.5577 34.844C34.5278 34.7447 34.513 34.6415 34.5137 34.5378Z" fill="#55A301"/>
<path id="Vector_24" d="M36.448 33.7613C36.5527 33.7587 36.6571 33.7729 36.7572 33.8033C36.8328 33.8262 36.9016 33.8674 36.9573 33.9234C37.0062 33.9777 37.0406 34.0434 37.0574 34.1145C37.0791 34.1961 37.0895 34.2803 37.0884 34.3647V35.2342C37.0284 35.2472 36.9453 35.2622 36.8393 35.2802C36.7111 35.2994 36.5816 35.3081 36.452 35.3063C36.3646 35.3073 36.2774 35.2989 36.1919 35.2812C36.1205 35.2668 36.0526 35.239 35.9917 35.1992C35.9365 35.1611 35.892 35.1094 35.8626 35.0491C35.8307 34.9774 35.8153 34.8994 35.8176 34.821C35.8152 34.7449 35.8331 34.6696 35.8697 34.6028C35.9032 34.5441 35.951 34.4949 36.0087 34.4597C36.0704 34.4226 36.1382 34.3965 36.2089 34.3827C36.2855 34.3665 36.3637 34.3584 36.442 34.3587C36.4901 34.3582 36.5382 34.3605 36.5861 34.3657C36.6198 34.3694 36.6533 34.3754 36.6862 34.3837V34.3447C36.6877 34.3133 36.6828 34.2819 36.6718 34.2525C36.6608 34.2231 36.6439 34.1962 36.6221 34.1736C36.5583 34.1236 36.4776 34.1002 36.397 34.1085C36.3266 34.1088 36.2564 34.1141 36.1868 34.1245C36.1259 34.1329 36.0659 34.1473 36.0077 34.1676L35.9547 33.8313C35.9846 33.8217 36.015 33.8137 36.0458 33.8073C36.0818 33.7993 36.1218 33.7913 36.1648 33.7853C36.2079 33.7793 36.2529 33.7723 36.3009 33.7683C36.3498 33.7633 36.3989 33.761 36.448 33.7613ZM36.482 34.9841C36.5231 34.9841 36.5621 34.9841 36.6001 34.9841C36.6299 34.9831 36.6597 34.9804 36.6892 34.9761V34.6559C36.6722 34.6559 36.6471 34.6489 36.6141 34.6449C36.5832 34.641 36.5522 34.639 36.5211 34.6388C36.4839 34.6391 36.4468 34.6414 36.41 34.6458C36.3784 34.65 36.3477 34.6591 36.3189 34.6729C36.293 34.6849 36.2711 34.7043 36.2562 34.7287C36.2412 34.7531 36.2338 34.7814 36.2349 34.81C36.232 34.8366 36.2366 34.8634 36.2483 34.8875C36.26 34.9116 36.2782 34.9319 36.3009 34.946C36.3569 34.9744 36.4194 34.9876 36.482 34.9841Z" fill="#55A301"/>
<path id="Vector_25" d="M38.0582 35.3046C37.9584 35.3058 37.8589 35.2923 37.763 35.2645C37.6958 35.2461 37.6341 35.2118 37.5829 35.1645C37.5387 35.1204 37.5076 35.065 37.4929 35.0044C37.4764 34.9352 37.4687 34.8643 37.4698 34.7932V33.1672L37.8871 33.0992V34.7072C37.8867 34.7408 37.8898 34.7743 37.8961 34.8073C37.9001 34.8349 37.9112 34.8611 37.9281 34.8833C37.9464 34.906 37.9701 34.9235 37.9972 34.9343C38.0356 34.9491 38.0761 34.9576 38.1172 34.9593L38.0582 35.3046Z" fill="#55A301"/>
<path id="Vector_26" d="M40.3607 33.5398C40.3827 33.6168 40.4077 33.7029 40.4347 33.7999C40.4618 33.897 40.4908 33.9951 40.5218 34.1001C40.5528 34.2052 40.5838 34.3063 40.6148 34.4093C40.6459 34.5124 40.6779 34.6095 40.7079 34.6955C40.7319 34.5954 40.7569 34.4954 40.782 34.3833C40.807 34.2712 40.832 34.1552 40.854 34.0361C40.876 33.917 40.899 33.7969 40.92 33.6779C40.9411 33.5588 40.9621 33.4447 40.9811 33.3347H41.4354C41.3687 33.6602 41.2929 33.9901 41.2082 34.3243C41.1235 34.6585 41.0308 34.9767 40.93 35.2789H40.5298C40.4638 35.0988 40.4007 34.9106 40.3387 34.7135C40.2766 34.5164 40.2166 34.3183 40.1566 34.1201C40.0965 34.3203 40.0375 34.5204 39.9775 34.7135C39.9174 34.9066 39.8544 35.0988 39.7893 35.2789H39.3891C39.289 34.978 39.1966 34.6598 39.1119 34.3243C39.0272 33.9887 38.9515 33.6589 38.8848 33.3347H39.3591C39.3781 33.4447 39.3981 33.5598 39.4211 33.6779C39.4441 33.7959 39.4671 33.916 39.4911 34.0361C39.5152 34.1562 39.5402 34.2712 39.5662 34.3833C39.5922 34.4954 39.6172 34.5994 39.6432 34.6955C39.6773 34.6035 39.7103 34.5064 39.7433 34.4033C39.7763 34.3003 39.8053 34.1972 39.8354 34.0951C39.8654 33.9931 39.8934 33.895 39.9184 33.7949C39.9434 33.6949 39.9664 33.6148 39.9875 33.5398H40.3607Z" fill="#55A301"/>
<path id="Vector_27" d="M41.5227 34.5494C41.5202 34.4319 41.5406 34.315 41.5827 34.2052C41.6188 34.1137 41.6729 34.0303 41.7418 33.9601C41.806 33.8952 41.883 33.8444 41.9679 33.811C42.0514 33.778 42.1404 33.7611 42.2301 33.7609C42.3223 33.7557 42.4146 33.7701 42.5009 33.8032C42.5871 33.8364 42.6654 33.8874 42.7304 33.9531C42.862 34.1108 42.9273 34.3135 42.9125 34.5184C42.9125 34.5424 42.9125 34.5694 42.9125 34.5985C42.9125 34.6275 42.9125 34.6525 42.9075 34.6755H41.9589C41.9632 34.7157 41.9762 34.7545 41.9971 34.7891C42.0181 34.8237 42.0464 34.8532 42.08 34.8756C42.165 34.9305 42.2652 34.9571 42.3662 34.9517C42.4417 34.9517 42.5171 34.9447 42.5913 34.9307C42.6535 34.9203 42.7142 34.9028 42.7724 34.8786L42.8285 35.2178C42.7997 35.2323 42.7695 35.2437 42.7384 35.2519C42.6977 35.264 42.6562 35.2736 42.6143 35.2809C42.5683 35.2896 42.5193 35.2966 42.4673 35.3019C42.4151 35.3079 42.3626 35.3109 42.3102 35.3109C42.1917 35.3133 42.0739 35.2933 41.9629 35.2519C41.8708 35.2165 41.7875 35.1615 41.7188 35.0908C41.6537 35.0213 41.6048 34.9382 41.5757 34.8476C41.5427 34.7516 41.5248 34.651 41.5227 34.5494ZM42.5043 34.3893C42.5026 34.3553 42.4965 34.3217 42.4863 34.2893C42.4765 34.2565 42.4605 34.2259 42.4392 34.1992C42.4164 34.1726 42.3885 34.1508 42.3572 34.1352C42.3191 34.1171 42.2772 34.1085 42.2351 34.1102C42.1939 34.1093 42.153 34.1171 42.115 34.1332C42.0825 34.1479 42.0538 34.1698 42.031 34.1972C42.0077 34.2238 41.99 34.2547 41.9789 34.2883C41.9672 34.3208 41.9581 34.3543 41.9519 34.3883L42.5043 34.3893Z" fill="#55A301"/>
<path id="Vector_28" d="M43.6917 33.3742C43.6935 33.408 43.6878 33.4418 43.675 33.4731C43.6622 33.5045 43.6426 33.5325 43.6176 33.5553C43.5692 33.5979 43.507 33.6214 43.4425 33.6214C43.378 33.6214 43.3158 33.5979 43.2674 33.5553C43.2194 33.5073 43.1924 33.4422 43.1924 33.3742C43.1924 33.3063 43.2194 33.2412 43.2674 33.1931C43.3158 33.1506 43.378 33.1271 43.4425 33.1271C43.507 33.1271 43.5692 33.1506 43.6176 33.1931C43.6426 33.2159 43.6622 33.244 43.675 33.2753C43.6878 33.3067 43.6935 33.3404 43.6917 33.3742ZM43.6526 35.2754H43.2344V33.8005H43.6526V35.2754Z" fill="#55A301"/>
<path id="Vector_29" d="M45.3179 35.0912C45.3179 35.3321 45.2568 35.5108 45.1347 35.6276C45.0127 35.7443 44.8232 35.803 44.5664 35.8037C44.4761 35.8036 44.3861 35.7956 44.2972 35.7797C44.2124 35.7649 44.1288 35.7439 44.0471 35.7166L44.1201 35.3654C44.1868 35.3924 44.2558 35.4132 44.3262 35.4275C44.4073 35.4431 44.4898 35.4505 44.5724 35.4495C44.6177 35.4541 44.6634 35.4496 44.7069 35.4362C44.7504 35.4228 44.7907 35.4007 44.8256 35.3714C44.876 35.3172 44.903 35.2453 44.9006 35.1713V35.1183C44.856 35.1385 44.8094 35.1539 44.7615 35.1643C44.7102 35.175 44.6579 35.1803 44.6054 35.1803C44.5189 35.1857 44.4323 35.1723 44.3514 35.141C44.2706 35.1098 44.1975 35.0614 44.1371 34.9992C44.0216 34.8567 43.9637 34.676 43.975 34.4929C43.9729 34.3906 43.9898 34.2888 44.0251 34.1927C44.0572 34.1067 44.1074 34.0286 44.1721 33.9635C44.2402 33.8986 44.3209 33.8485 44.4093 33.8164C44.5112 33.7807 44.6185 33.7631 44.7265 33.7644C44.7765 33.7644 44.8266 33.7644 44.8816 33.7714C44.9366 33.7784 44.9887 33.7824 45.0407 33.7904C45.0927 33.7984 45.1407 33.8064 45.1908 33.8164C45.2408 33.8264 45.2808 33.8375 45.3179 33.8495V35.0912ZM44.4013 34.4909C44.4013 34.7243 44.4957 34.8411 44.6845 34.8411C44.7251 34.8418 44.7657 34.836 44.8045 34.8241C44.8393 34.8151 44.8729 34.802 44.9046 34.7851V34.1176C44.8836 34.1176 44.8596 34.1106 44.8316 34.1076C44.7982 34.1059 44.7648 34.1059 44.7315 34.1076C44.6845 34.104 44.6374 34.1121 44.5942 34.1312C44.5511 34.1502 44.5134 34.1796 44.4843 34.2167C44.4279 34.2968 44.3988 34.3929 44.4013 34.4909Z" fill="#55A301"/>
<path id="Vector_30" d="M45.71 35.2765V33.1672L46.1282 33.0992V33.8066C46.2042 33.7819 46.2835 33.7684 46.3634 33.7666C46.4656 33.7638 46.5675 33.7804 46.6636 33.8156C46.7379 33.8448 46.8034 33.8927 46.8537 33.9547C46.9027 34.0173 46.9369 34.0902 46.9537 34.1679C46.9746 34.2581 46.9847 34.3504 46.9838 34.443V35.2765H46.5655V34.4941C46.5732 34.3958 46.5552 34.2972 46.5135 34.2079C46.4919 34.1779 46.4628 34.1541 46.429 34.1392C46.3952 34.1242 46.358 34.1186 46.3213 34.1228C46.2861 34.123 46.2509 34.1263 46.2163 34.1328L46.1282 34.1538V35.2765H45.71Z" fill="#55A301"/>
<path id="Vector_31" d="M47.3487 33.4341L47.7669 33.3671V33.8013H48.2673V34.1496H47.7669V34.6679C47.7634 34.7411 47.7793 34.8139 47.813 34.879C47.8343 34.9073 47.8628 34.9295 47.8955 34.9432C47.9282 34.9569 47.9639 34.9617 47.9991 34.9571C48.0458 34.9571 48.0923 34.9528 48.1382 34.9441C48.1829 34.9366 48.2268 34.9249 48.2693 34.909L48.3273 35.2352C48.2726 35.2569 48.2164 35.2746 48.1592 35.2883C48.0846 35.3045 48.0084 35.3119 47.932 35.3103C47.8356 35.3134 47.7394 35.2978 47.6489 35.2643C47.5791 35.2372 47.5175 35.1928 47.4698 35.1352C47.4229 35.0769 47.3907 35.0083 47.3757 34.935C47.357 34.8493 47.3479 34.7617 47.3487 34.6739V33.4341Z" fill="#55A301"/>
<path id="Vector_32" d="M50.6094 34.9004V35.2767H49.3086V33.3325H49.7459V34.9004H50.6094Z" fill="#55A301"/>
<path id="Vector_33" d="M52.241 34.5367C52.2419 34.6448 52.225 34.7523 52.191 34.8549C52.1597 34.9461 52.11 35.0299 52.0449 35.101C51.9807 35.1698 51.9026 35.224 51.8157 35.2601C51.6247 35.3348 51.4125 35.3348 51.2214 35.2601C51.1347 35.2242 51.0568 35.17 50.9932 35.101C50.9272 35.03 50.8765 34.9463 50.8441 34.8549C50.8076 34.7528 50.7896 34.645 50.7911 34.5367C50.7897 34.4285 50.808 34.321 50.8451 34.2195C50.8787 34.1286 50.9304 34.0455 50.9972 33.9753C51.0621 33.9075 51.1405 33.8539 51.2274 33.8182C51.3194 33.7803 51.418 33.7612 51.5176 33.7622C51.618 33.7612 51.7177 33.7803 51.8107 33.8182C51.8971 33.8537 51.9749 33.9073 52.0389 33.9753C52.1047 34.0457 52.1555 34.1288 52.188 34.2195C52.2243 34.3212 52.2422 34.4286 52.241 34.5367ZM51.8147 34.5367C51.8205 34.4295 51.7936 34.3231 51.7377 34.2315C51.7133 34.196 51.6803 34.1673 51.6418 34.148C51.6033 34.1288 51.5606 34.1196 51.5176 34.1214C51.4743 34.1196 51.4312 34.1288 51.3924 34.148C51.3536 34.1673 51.3202 34.196 51.2954 34.2315C51.2387 34.3228 51.2115 34.4293 51.2174 34.5367C51.2118 34.6446 51.239 34.7517 51.2954 34.8439C51.3198 34.8801 51.3529 34.9094 51.3918 34.9292C51.4307 34.949 51.474 34.9586 51.5176 34.9569C51.5609 34.9586 51.6039 34.9491 51.6424 34.9293C51.681 34.9094 51.7138 34.88 51.7377 34.8439C51.7933 34.7514 51.8201 34.6444 51.8147 34.5367Z" fill="#55A301"/>
<path id="Vector_34" d="M52.984 34.9757C53.039 34.979 53.0941 34.9712 53.1461 34.9527C53.162 34.9448 53.1751 34.9323 53.1837 34.9167C53.1923 34.9011 53.1959 34.8833 53.1941 34.8656C53.1924 34.8468 53.1858 34.8287 53.1749 34.8133C53.164 34.7978 53.1492 34.7855 53.132 34.7776C53.0724 34.7436 53.0098 34.7151 52.9449 34.6925C52.8789 34.6675 52.8198 34.6425 52.7668 34.6165C52.7167 34.5927 52.6707 34.561 52.6307 34.5224C52.5926 34.4859 52.5629 34.4415 52.5437 34.3924C52.5215 34.3339 52.511 34.2717 52.5127 34.2092C52.5107 34.1463 52.5236 34.0837 52.5504 34.0267C52.5772 33.9697 52.617 33.9198 52.6668 33.881C52.7904 33.7947 52.9395 33.7525 53.09 33.761C53.1766 33.7606 53.2631 33.7687 53.3482 33.785C53.4162 33.7966 53.4831 33.8137 53.5483 33.836L53.4763 34.1622C53.4241 34.1443 53.371 34.1293 53.3172 34.1172C53.2541 34.1034 53.1896 34.0966 53.125 34.0972C52.994 34.0972 52.9249 34.1342 52.9249 34.2072C52.9249 34.2223 52.9276 34.2372 52.9329 34.2513C52.9405 34.2669 52.9522 34.2801 52.9669 34.2893C52.9888 34.3045 53.0119 34.3179 53.036 34.3293C53.065 34.3433 53.102 34.3583 53.1461 34.3753C53.2242 34.4029 53.3001 34.4363 53.3732 34.4754C53.426 34.5029 53.4739 34.5387 53.5153 34.5815C53.549 34.6181 53.5739 34.6619 53.5883 34.7096C53.6032 34.7623 53.6103 34.8169 53.6093 34.8717C53.6127 34.9362 53.5994 35.0005 53.5707 35.0583C53.5419 35.1162 53.4987 35.1656 53.4452 35.2019C53.3052 35.2848 53.1434 35.3238 52.981 35.3139C52.8709 35.3164 52.7609 35.305 52.6537 35.2799C52.5923 35.2659 52.5321 35.2472 52.4736 35.2239L52.5437 34.8847C52.6145 34.9126 52.6874 34.9347 52.7618 34.9507C52.8348 34.9668 52.9092 34.9752 52.984 34.9757Z" fill="#55A301"/>
<path id="Vector_35" d="M54.3502 34.9758C54.4055 34.9791 54.461 34.9712 54.5133 34.9528C54.5292 34.9449 54.5423 34.9323 54.5509 34.9168C54.5595 34.9012 54.5631 34.8834 54.5613 34.8657C54.5597 34.8469 54.5531 34.8288 54.5422 34.8133C54.5313 34.7979 54.5165 34.7856 54.4993 34.7777C54.4393 34.7437 54.3763 34.7152 54.3111 34.6926C54.2461 34.6676 54.1861 34.6426 54.133 34.6166C54.0832 34.5923 54.0373 34.5606 53.9969 34.5225C53.9595 34.4855 53.9298 34.4412 53.9099 34.3924C53.8882 34.3339 53.8777 34.2718 53.8789 34.2093C53.877 34.1463 53.8901 34.0837 53.9171 34.0266C53.944 33.9696 53.9841 33.9197 54.034 33.8811C54.1575 33.7945 54.3066 33.7522 54.4572 33.761C54.5439 33.7607 54.6303 33.7687 54.7154 33.785C54.7833 33.7968 54.8502 33.8139 54.9155 33.8361L54.8425 34.1623C54.7907 34.1442 54.7379 34.1292 54.6844 34.1173C54.6213 34.1034 54.5568 34.0967 54.4923 34.0972C54.3612 34.0972 54.2921 34.1343 54.2921 34.2073C54.2914 34.2224 54.2942 34.2375 54.3001 34.2513C54.3077 34.267 54.3195 34.2801 54.3342 34.2894C54.3555 34.3048 54.3783 34.3182 54.4022 34.3294C54.4312 34.3434 54.4682 34.3584 54.5133 34.3754C54.5913 34.4032 54.6672 34.4366 54.7404 34.4755C54.7932 34.503 54.8411 34.5388 54.8825 34.5815C54.9155 34.6187 54.9404 34.6623 54.9555 34.7096C54.9704 34.7623 54.9775 34.817 54.9766 34.8717C54.9799 34.9362 54.9666 35.0005 54.9379 35.0584C54.9091 35.1162 54.8659 35.1657 54.8125 35.2019C54.6723 35.2847 54.5106 35.3238 54.3482 35.314C54.2381 35.3165 54.1282 35.305 54.021 35.28C53.9593 35.2658 53.8987 35.2471 53.8398 35.2239L53.9099 34.8847C53.981 34.9128 54.0543 34.9349 54.129 34.9508C54.2016 34.9669 54.2758 34.9753 54.3502 34.9758Z" fill="#55A301"/>
<path id="Vector_36" d="M56.8731 35.3151C56.5579 35.3151 56.3167 35.2271 56.1516 35.051C55.9865 34.8748 55.9025 34.6257 55.9025 34.3025C55.9003 34.1555 55.9261 34.0095 55.9785 33.8722C56.0256 33.7532 56.0968 33.6452 56.1877 33.555C56.2765 33.4661 56.3837 33.3978 56.5018 33.3549C56.6285 33.3091 56.7624 33.2864 56.8971 33.2878C56.9722 33.2873 57.0472 33.2933 57.1212 33.3059C57.1811 33.3161 57.2402 33.3302 57.2983 33.3479C57.3414 33.3615 57.3835 33.3779 57.4244 33.3969C57.4574 33.4139 57.4825 33.4269 57.4975 33.4369L57.3714 33.7902C57.3048 33.7557 57.2347 33.7285 57.1623 33.7091C57.0739 33.6852 56.9826 33.6737 56.8911 33.6751C56.8229 33.6746 56.7552 33.6861 56.691 33.7091C56.6264 33.731 56.5678 33.7677 56.5199 33.8162C56.4665 33.8713 56.4256 33.9371 56.3998 34.0093C56.3684 34.101 56.3535 34.1976 56.3558 34.2945C56.3548 34.3791 56.3645 34.4635 56.3848 34.5456C56.4022 34.6182 56.4345 34.6864 56.4798 34.7458C56.5261 34.8033 56.5855 34.8489 56.6529 34.8788C56.7344 34.9138 56.8225 34.9305 56.9111 34.9279C56.9683 34.9281 57.0255 34.9244 57.0822 34.9169C57.1322 34.9089 57.1823 34.8999 57.2163 34.8899C57.2505 34.8807 57.2839 34.869 57.3164 34.8548L57.3974 34.8188L57.5185 35.169C57.4365 35.2143 57.3486 35.248 57.2573 35.2691C57.1317 35.3008 57.0026 35.3163 56.8731 35.3151Z" fill="#55A301"/>
<path id="Vector_37" d="M57.6701 34.5494C57.6675 34.4318 57.6882 34.3148 57.7312 34.2052C57.767 34.1138 57.8207 34.0304 57.8893 33.9601C57.9535 33.8952 58.0305 33.8444 58.1154 33.811C58.1989 33.778 58.2878 33.7611 58.3776 33.7609C58.4698 33.7557 58.5621 33.7701 58.6484 33.8032C58.7346 33.8364 58.8129 33.8874 58.8779 33.9531C59.0095 34.1108 59.0748 34.3135 59.06 34.5184C59.06 34.5424 59.06 34.5694 59.06 34.5985C59.06 34.6275 59.06 34.6525 59.055 34.6755H58.1064C58.1109 34.7157 58.124 34.7544 58.1449 34.7889C58.1658 34.8235 58.194 34.8531 58.2275 34.8756C58.3125 34.9305 58.4127 34.9571 58.5137 34.9517C58.5892 34.9518 58.6646 34.9447 58.7388 34.9307C58.801 34.9204 58.8618 34.9029 58.9199 34.8786L58.976 35.2178C58.9475 35.2321 58.9177 35.2435 58.8869 35.2519C58.8458 35.2638 58.804 35.2735 58.7618 35.2809C58.7158 35.2896 58.6668 35.2966 58.6147 35.3019C58.5626 35.3079 58.5101 35.3109 58.4576 35.3109C58.3392 35.3132 58.2214 35.2932 58.1104 35.2519C58.0185 35.2167 57.9355 35.1617 57.8673 35.0908C57.8015 35.0218 57.7525 34.9386 57.7242 34.8476C57.6904 34.7517 57.6721 34.6511 57.6701 34.5494ZM58.6528 34.3893C58.6506 34.3553 58.6443 34.3217 58.6338 34.2893C58.624 34.2565 58.608 34.2259 58.5867 34.1992C58.5639 34.1726 58.536 34.1508 58.5047 34.1352C58.4666 34.1171 58.4247 34.1085 58.3826 34.1102C58.3414 34.1095 58.3005 34.1173 58.2625 34.1332C58.23 34.1479 58.2013 34.1698 58.1785 34.1972C58.1552 34.2238 58.1375 34.2547 58.1264 34.2883C58.1147 34.3208 58.1056 34.3543 58.0994 34.3883L58.6528 34.3893Z" fill="#55A301"/>
<path id="Vector_38" d="M59.378 33.8564C59.4681 33.8314 59.5597 33.812 59.6522 33.7984C59.7693 33.78 59.8878 33.7709 60.0064 33.7714C60.1126 33.7686 60.2184 33.7852 60.3186 33.8204C60.3962 33.8486 60.4652 33.8965 60.5187 33.9595C60.5668 34.0226 60.601 34.0953 60.6188 34.1726C60.6396 34.2628 60.6497 34.3552 60.6488 34.4478V35.2813H60.2315V34.4988C60.2393 34.4003 60.2206 34.3015 60.1775 34.2126C60.1547 34.182 60.1241 34.1579 60.089 34.143C60.0538 34.128 60.0153 34.1227 59.9774 34.1276C59.9474 34.1276 59.9163 34.1276 59.8823 34.1326C59.8483 34.1376 59.8183 34.1386 59.7923 34.1416V35.2773H59.375L59.378 33.8564Z" fill="#55A301"/>
<path id="Vector_39" d="M61.0186 33.4341L61.4358 33.3671V33.8013H61.9362V34.1496H61.4358V34.6679C61.4326 34.7412 61.4488 34.814 61.4829 34.879C61.5042 34.9073 61.5327 34.9295 61.5654 34.9432C61.5981 34.9569 61.6338 34.9617 61.669 34.9571C61.7157 34.9571 61.7622 34.9527 61.8081 34.9441C61.8525 34.9368 61.8961 34.9251 61.9382 34.909L61.9972 35.2352C61.9425 35.2569 61.8863 35.2746 61.8291 35.2883C61.7545 35.3044 61.6783 35.3118 61.6019 35.3103C61.5055 35.3135 61.4093 35.2979 61.3188 35.2643C61.2489 35.237 61.1869 35.1926 61.1387 35.1352C61.0922 35.0766 61.06 35.0081 61.0446 34.935C61.0267 34.8492 61.018 34.7616 61.0186 34.6739V33.4341Z" fill="#55A301"/>
<path id="Vector_40" d="M62.1526 34.5495C62.1499 34.4318 62.1707 34.3148 62.2136 34.2052C62.2494 34.1138 62.3032 34.0304 62.3717 33.9601C62.4359 33.8952 62.5129 33.8444 62.5978 33.811C62.6813 33.7781 62.7703 33.7611 62.86 33.761C62.9523 33.7557 63.0446 33.7701 63.1308 33.8032C63.2171 33.8363 63.2953 33.8874 63.3603 33.9531C63.4919 34.1108 63.5572 34.3135 63.5424 34.5184C63.5424 34.5424 63.5424 34.5695 63.5424 34.5985C63.5424 34.6275 63.5424 34.6525 63.5374 34.6755H62.5818C62.5863 34.7157 62.5994 34.7544 62.6203 34.7889C62.6412 34.8235 62.6694 34.8531 62.7029 34.8757C62.7883 34.9325 62.8896 34.9606 62.9921 34.9557C63.0676 34.9558 63.143 34.9488 63.2172 34.9347C63.2794 34.9244 63.3402 34.907 63.3983 34.8827L63.4544 35.2219C63.4259 35.2362 63.3961 35.2476 63.3653 35.2559C63.3242 35.2679 63.2824 35.2776 63.2403 35.2849C63.1942 35.2936 63.1452 35.3006 63.0932 35.3059C63.041 35.3119 62.9886 35.3149 62.9361 35.3149C62.8176 35.3173 62.6998 35.2972 62.5888 35.2559C62.4969 35.2208 62.4139 35.1658 62.3457 35.0948C62.2799 35.0258 62.231 34.9426 62.2026 34.8516C62.1697 34.7543 62.1528 34.6522 62.1526 34.5495ZM63.1352 34.3894C63.1331 34.3553 63.1267 34.3217 63.1162 34.2893C63.1064 34.2565 63.0904 34.226 63.0691 34.1992C63.0463 34.1726 63.0184 34.1509 62.9871 34.1352C62.949 34.1171 62.9071 34.1085 62.865 34.1102C62.8238 34.1095 62.783 34.1174 62.7449 34.1332C62.7124 34.1479 62.6837 34.1698 62.6609 34.1972C62.6376 34.2238 62.6199 34.2548 62.6089 34.2883C62.5971 34.3208 62.588 34.3543 62.5818 34.3883L63.1352 34.3894Z" fill="#55A301"/>
<path id="Vector_41" d="M64.746 34.1708C64.709 34.1617 64.6649 34.1517 64.6149 34.1417C64.5613 34.1306 64.5066 34.1253 64.4518 34.1257C64.4203 34.1264 64.3889 34.1288 64.3577 34.1327C64.3297 34.136 64.3019 34.1413 64.2747 34.1487V35.2764H63.8574V33.8756C63.9443 33.8455 64.0328 33.8204 64.1226 33.8005C64.2343 33.7762 64.3484 33.7645 64.4628 33.7655C64.4858 33.7655 64.5128 33.7655 64.5439 33.7655C64.5749 33.7655 64.6079 33.7725 64.6439 33.7775C64.6799 33.7825 64.707 33.7875 64.744 33.7935C64.7716 33.7992 64.7987 33.8073 64.825 33.8175L64.746 34.1708Z" fill="#55A301"/>
</g>
<path id="Vector_42" d="M55.1322 3.63678C55.1322 3.63678 52.5656 6.47956 52.0993 9.20727C51.633 11.935 53.6712 15.147 57.0784 16.8631C57.0784 16.8631 60.0743 13.7611 59.1507 10.4671C58.2271 7.17299 54.9731 7.46318 55.1322 3.63678Z" fill="#55A301"/>
<path id="Vector_43" d="M57.1869 16.0842C57.2392 15.4744 57.2415 14.8613 57.1939 14.2511C57.1505 13.6501 57.0646 13.0528 56.9367 12.464C56.9087 12.3169 56.8646 12.1718 56.8306 12.0257L56.7776 11.8066L56.7126 11.5904C56.6695 11.4453 56.6255 11.3012 56.5845 11.1552C56.5434 11.0091 56.4844 10.871 56.4334 10.7269L56.3603 10.5108C56.3353 10.4387 56.3033 10.3707 56.2763 10.2986C56.2192 10.1575 56.1642 10.0154 56.1092 9.87135C56.0541 9.72726 55.9861 9.59018 55.9281 9.44609C55.87 9.302 55.808 9.16091 55.752 9.01282C55.852 9.13089 55.9521 9.25297 56.0521 9.37604C56.1012 9.43708 56.1472 9.50112 56.1952 9.56316C56.2435 9.62519 56.2886 9.68964 56.3303 9.75628C56.4134 9.88837 56.4964 10.0224 56.5765 10.1565C56.6175 10.2236 56.6595 10.2906 56.6955 10.3567L56.7956 10.5688C56.8646 10.7099 56.9317 10.853 56.9957 10.9961C57.0598 11.1391 57.1068 11.2962 57.1618 11.4403C57.1899 11.5144 57.2159 11.5894 57.2409 11.6645L57.3059 11.8926C57.345 12.0457 57.392 12.1928 57.423 12.3529C57.5602 12.9734 57.6153 13.6092 57.5871 14.2441C57.5685 14.8769 57.4328 15.5009 57.1869 16.0842Z" fill="white"/>
<path id="Vector_44" d="M73.546 14.4264C73.546 14.4264 71.986 19.1293 69.2133 21.3947C66.4405 23.6602 61.5264 23.415 57.4219 20.6773C57.4219 20.6773 58.9969 15.3279 63.2956 14.2633C67.5942 13.1986 69.3413 17.045 73.546 14.4264Z" fill="#55A301"/>
<path id="Vector_45" d="M58.1621 20.0468C58.6624 19.4114 59.3138 18.902 60.0043 18.4768L60.2654 18.3167C60.3525 18.2636 60.4445 18.2166 60.5346 18.1726C60.7147 18.0795 60.8938 17.9815 61.0829 17.9044C61.2721 17.8274 61.4562 17.7403 61.6473 17.6683L62.2257 17.4681C62.3207 17.4331 62.4208 17.4121 62.5188 17.3851L62.819 17.308L63.1192 17.233C63.2193 17.213 63.3193 17.196 63.4194 17.178C63.6195 17.1439 63.8196 17.1089 64.0198 17.0779C64.2199 17.0469 64.42 17.0419 64.6272 17.0269L64.9273 17.0038C65.0274 17.0038 65.1275 17.0038 65.2275 17.0038L65.8339 17.0129C65.8839 17.0129 65.934 17.0129 65.985 17.0189L66.1361 17.0349C66.2362 17.0459 66.3362 17.0549 66.4363 17.0679C66.6364 17.0919 66.8365 17.1169 67.0367 17.1479C66.8365 17.173 66.6364 17.19 66.4363 17.207C66.3362 17.216 66.2362 17.221 66.1361 17.228L65.988 17.239C65.938 17.239 65.8879 17.252 65.8399 17.258L65.2495 17.3311C65.1495 17.3451 65.0494 17.3501 64.9554 17.3661L64.6642 17.4171C64.4701 17.4518 64.2759 17.4851 64.0818 17.5172L63.5075 17.6472L63.2203 17.7093L62.9381 17.7903C62.75 17.8444 62.5589 17.8904 62.3727 17.9504C61.6247 18.1838 60.8958 18.4746 60.1924 18.82C59.4793 19.1655 58.7997 19.5762 58.1621 20.0468Z" fill="white"/>
</g>
</g>
</g>
<defs>
<clipPath id="clip0_0_1">
<rect width="375" height="6826" fill="white" transform="translate(-20 -18)"/>
</clipPath>
</defs>
</svg>
